<svg id="Layer_1" data-name="Layer 1" xmlns="http://www.w3.org/2000/svg" viewBox="0 0 160 160"><defs><style>.cls-1{fill:#010101;}.cls-2{fill:#ef467f;}</style></defs><polygon class="cls-1" points="48.93 111.65 48.93 160 15.28 160 15.28 78 48.93 111.65"/><path class="cls-1" d="M144.71,64.71a64.75,64.75,0,0,1-36.81,58.41L79.21,95.77h1.34A31.07,31.07,0,1,0,48.93,64.71v1.42l-28-28A64.72,64.72,0,0,1,144.71,64.71Z"/><polygon class="cls-2" points="144.71 159.93 144.63 160 97.21 160 56.1 118.89 79.21 95.77 107.9 123.12 144.71 159.93"/><polygon class="cls-2" points="15.58 77.89 15.58 78 15.28 78 15.58 77.89"/><polygon class="cls-2" points="15.58 77.89 15.58 78 15.28 78 15.58 77.89"/><polygon class="cls-1" points="15.58 77.99 15.28 77.99 15.58 77.89 15.58 77.99"/><path class="cls-2" d="M48.93,66.13v45.51L15.28,78h.3v-.1l-.3.1V64.7A64.42,64.42,0,0,1,21,38.16Z"/><polygon class="cls-2" points="15.59 77.89 15.59 77.99 15.28 77.99 15.59 77.89"/><polygon class="cls-2" points="15.59 77.89 15.59 77.99 15.28 77.99 15.59 77.89"/></svg>