<svg id="Layer_1" data-name="Layer 1" xmlns="http://www.w3.org/2000/svg" viewBox="0 0 412.42 160"><defs><style>.cls-1{fill:#010101;}.cls-2{fill:#ef467f;}</style></defs><path class="cls-1" d="M127.43,0V63.6a63.6,63.6,0,0,1-127.2,0V0H32.9V63.6A30.94,30.94,0,0,0,63.05,94.53h1.34A30.93,30.93,0,0,0,94.77,63.6V0Z"/><path class="cls-1" d="M348.82,0a63.6,63.6,0,1,0,63.6,63.6A63.61,63.61,0,0,0,348.82,0Zm.56,94.53H348a31.05,31.05,0,1,1,1.34,0Z"/><path class="cls-2" d="M206.33,0a63.6,63.6,0,1,0,63.6,63.6A63.6,63.6,0,0,0,206.33,0Zm.55,94.53h-1.33a31,31,0,1,1,1.33,0Z"/><path class="cls-1" d="M142.73,63.6a63.5,63.5,0,0,0,59.69,63.48c1.29.08,2.59.12,3.91.12V94.54h-.56a30.93,30.93,0,0,1-3.43-61.6h0a31.25,31.25,0,0,1,7.89,0h0A30.93,30.93,0,0,1,237.26,63.6V96.4c0,.66,0,1.31-.06,2a31,31,0,0,1-26.91,28.72,30.51,30.51,0,0,1-3.18.24h-.78V160a63.26,63.26,0,0,0,30.87-8l.06,0A63.57,63.57,0,0,0,269.93,96.4V63.6a63.6,63.6,0,1,0-127.2,0Z"/></svg>